<?xml version="1.0" encoding="utf-8"?>
<!-- Generator: Adobe Illustrator 21.1.0, SVG Export Plug-In . SVG Version: 6.00 Build 0)  -->
<svg version="1.1" id="Слой_1" xmlns="http://www.w3.org/2000/svg" xmlns:xlink="http://www.w3.org/1999/xlink" x="0px" y="0px"
	 viewBox="0 0 270 40" style="enable-background:new 0 0 270 40;" xml:space="preserve">
<style type="text/css">
	.st0{fill:#038638;}
	.st1{fill:#196B35;}
	.st2{fill:#185531;}
	.st3{fill:#B2B2B2;}
</style>
<g>
	<g>
		<path class="st0" d="M61.6,35h-3.5V20.5H53V35h-3.5V17.6h12.2V35z"/>
		<path class="st0" d="M74.4,28.9c0,2-0.3,3.6-1,4.7c-0.7,1.1-1.7,1.6-3.1,1.6c-1.1,0-1.9-0.4-2.5-1.3v6h-3.4V22.1h3.1l0.1,1.2
			c0.6-0.9,1.5-1.4,2.6-1.4c1.4,0,2.4,0.5,3.1,1.5c0.7,1,1.1,2.5,1.1,4.6V28.9z M71,28.1c0-1.3-0.1-2.1-0.4-2.7
			c-0.3-0.5-0.7-0.8-1.4-0.8c-0.7,0-1.2,0.3-1.5,0.9v6.1c0.3,0.6,0.8,0.8,1.5,0.8c0.7,0,1.1-0.3,1.4-0.9C70.9,31,71,30.2,71,29V28.1
			z"/>
		<path class="st0" d="M76.1,28.1c0-2,0.5-3.5,1.4-4.6c0.9-1.1,2.2-1.7,3.8-1.7c1.7,0,2.9,0.6,3.9,1.7c0.9,1.1,1.4,2.7,1.4,4.6V29
			c0,2-0.5,3.5-1.4,4.6c-0.9,1.1-2.2,1.7-3.9,1.7c-1.7,0-3-0.6-3.9-1.7c-0.9-1.1-1.4-2.7-1.4-4.6V28.1z M79.5,29
			c0,2.3,0.6,3.5,1.9,3.5c1.1,0,1.8-1,1.8-2.9l0-1.4c0-1.2-0.2-2.1-0.5-2.6c-0.3-0.6-0.8-0.9-1.4-0.9c-0.6,0-1,0.3-1.3,0.9
			c-0.3,0.6-0.5,1.5-0.5,2.6V29z"/>
		<path class="st0" d="M95.4,30.9l2.4-8.8h4.2v13h-3.4v-6.9L96.6,35h-2.3l-2.1-6.7V35h-3.4v-13h4.2L95.4,30.9z"/>
		<path class="st1" d="M116.4,20.5h-4.3V35h-3.5V20.5h-4.2v-2.9h12.1V20.5z"/>
		<path class="st1" d="M122.4,35.3c-1.7,0-3.1-0.5-4.1-1.6c-1-1-1.5-2.5-1.5-4.5v-1c0-2,0.4-3.6,1.3-4.7c0.9-1.1,2.2-1.7,3.8-1.7
			c1.6,0,2.9,0.5,3.7,1.6c0.8,1,1.2,2.6,1.3,4.6v1.7h-6.7c0,1,0.3,1.7,0.6,2.1c0.4,0.4,1,0.7,1.7,0.7c1.1,0,2.1-0.4,2.8-1.2l1.3,2
			c-0.4,0.6-1,1-1.8,1.4C124.2,35.1,123.3,35.3,122.4,35.3z M120.3,27.3h3.4V27c0-0.8-0.1-1.4-0.4-1.8c-0.2-0.4-0.7-0.6-1.2-0.6
			s-1,0.2-1.3,0.6C120.5,25.7,120.3,26.4,120.3,27.3z"/>
		<path class="st1" d="M133.3,25.9l1.5-3.8h3.6l-3,6.3l3.1,6.6h-3.6l-1.6-4.1l-1.6,4.1h-3.6l3.1-6.6l-2.9-6.3h3.6L133.3,25.9z"/>
		<path class="st2" d="M145.7,25.3l2.3-7.7h3.8l-4.8,14c-0.5,1.4-1.1,2.3-1.8,2.9c-0.6,0.5-1.4,0.8-2.3,0.8h-0.4l-0.8,0l-0.1-2.9
			c0.1,0,0.3,0,0.8,0c0.4,0,0.8-0.1,1-0.3c0.2-0.2,0.4-0.6,0.6-1.3l0.2-0.6l-5-12.5h3.8L145.7,25.3z"/>
		<path class="st2" d="M162.9,24.9h-3.3V35h-3.4V24.9h-3.3v-2.8h10V24.9z"/>
		<path class="st2" d="M171.1,22.1h3.4v13h-3.4v-8l-3,8h-3.4v-13h3.4v8L171.1,22.1z"/>
		<path class="st2" d="M186.7,22.1v13h-3.4V24.9h-2l-0.2,4c-0.1,2.1-0.5,3.6-1.1,4.6c-0.6,1-1.5,1.5-2.8,1.5h-1.1l0-2.8l0.4,0
			c0.5-0.1,0.8-0.4,1-1c0.2-0.6,0.4-1.6,0.4-2.9l0.2-6.1H186.7z"/>
		<path class="st2" d="M195.6,22.1h3.4v13h-3.4v-8l-3,8h-3.4v-13h3.4v8L195.6,22.1z"/>
		<path class="st2" d="M206.9,25.9c0-1-0.4-1.4-1.1-1.4c-0.4,0-0.7,0.1-0.9,0.3c-0.2,0.2-0.3,0.6-0.3,1h-3.4c0-1.2,0.4-2.1,1.2-2.9
			c0.8-0.7,1.9-1.1,3.2-1.1c1.4,0,2.6,0.3,3.4,1c0.8,0.7,1.2,1.6,1.2,2.8c0,0.6-0.1,1.1-0.4,1.6c-0.3,0.5-0.7,0.9-1.2,1.2
			c1.2,0.5,1.9,1.5,1.9,3c0,1.2-0.4,2.1-1.3,2.8c-0.9,0.7-2.1,1.1-3.5,1.1c-1.4,0-2.5-0.4-3.3-1.1c-0.9-0.7-1.3-1.7-1.3-3h3.4
			c0,0.5,0.1,0.8,0.4,1.1c0.3,0.3,0.6,0.4,1,0.4c0.4,0,0.7-0.1,0.9-0.4c0.2-0.3,0.3-0.7,0.3-1.1c0-1-0.4-1.5-1.2-1.6h-1.7v-2.3h1.6
			C206.6,27.3,206.9,26.8,206.9,25.9z"/>
		<path class="st2" d="M218.7,35c-0.1-0.2-0.2-0.5-0.3-1c-0.6,0.8-1.4,1.2-2.5,1.2c-1.1,0-2-0.4-2.7-1.1c-0.7-0.7-1.1-1.6-1.1-2.8
			c0-1.4,0.4-2.4,1.3-3.1c0.9-0.7,2.1-1.1,3.7-1.1h1v-1c0-0.6-0.1-1-0.3-1.2c-0.2-0.2-0.5-0.4-0.9-0.4c-0.8,0-1.3,0.5-1.3,1.5h-3.4
			c0-1.2,0.4-2.2,1.3-3s2-1.2,3.4-1.2c1.4,0,2.5,0.4,3.3,1.1c0.8,0.7,1.2,1.8,1.2,3.2v6.1c0,1.1,0.2,2,0.5,2.6V35H218.7z
			 M216.7,32.6c0.4,0,0.7-0.1,1-0.2c0.3-0.2,0.5-0.3,0.6-0.5v-2.7h-0.8c-0.6,0-1,0.2-1.4,0.6c-0.3,0.4-0.5,0.9-0.5,1.5
			C215.5,32.1,215.9,32.6,216.7,32.6z"/>
		<path class="st2" d="M224,22.1h3.4v10.2h3V22.1h3.4v10.2h1.8l-0.2,6.6h-3.1V35H224V22.1z"/>
		<path class="st2" d="M243.7,22.1h3.4v13h-3.4v-8l-3,8h-3.4v-13h3.4v8L243.7,22.1z"/>
		<path class="st2" d="M259,22.1v13h-3.4v-4.5h-1.3l-2.1,4.5h-3.4l2.4-5.1c-0.7-0.4-1.2-0.8-1.5-1.4c-0.4-0.6-0.5-1.3-0.5-2.1
			c0-1.3,0.4-2.3,1.3-3.1c0.9-0.8,2.1-1.2,3.6-1.2H259z M252.6,26.5c0,0.5,0.1,0.8,0.4,1.1c0.3,0.3,0.6,0.5,1.1,0.5h1.6v-3.3H254
			c-0.4,0-0.8,0.2-1,0.5C252.7,25.7,252.6,26.1,252.6,26.5z"/>
	</g>
	<g>
		<path class="st3" d="M181.8,16.3h6.4v0.9h-7.4v-13h1.1V16.3z"/>
		<path class="st3" d="M189.9,4.8c0-0.2,0.1-0.4,0.2-0.5c0.1-0.1,0.3-0.2,0.5-0.2c0.2,0,0.4,0.1,0.5,0.2c0.1,0.1,0.2,0.3,0.2,0.5
			s-0.1,0.4-0.2,0.5c-0.1,0.1-0.3,0.2-0.5,0.2c-0.2,0-0.4-0.1-0.5-0.2C190,5.1,189.9,5,189.9,4.8z M191.2,17.2h-1.1V7.6h1.1V17.2z"
			/>
		<path class="st3" d="M193.6,12.3c0-1.5,0.3-2.7,1-3.6c0.7-0.9,1.6-1.3,2.7-1.3c1.3,0,2.3,0.5,3,1.5V3.5h1.1v13.7h-1l0-1.3
			c-0.7,1-1.7,1.5-3,1.5c-1.1,0-2-0.4-2.7-1.3c-0.7-0.9-1-2.1-1-3.6V12.3z M194.7,12.5c0,1.2,0.2,2.2,0.7,2.9s1.2,1.1,2.1,1.1
			c1.3,0,2.2-0.6,2.8-1.7v-4.5c-0.5-1.3-1.5-1.9-2.8-1.9c-0.9,0-1.6,0.4-2.1,1.1C194.9,10.1,194.7,11.1,194.7,12.5z"/>
		<path class="st3" d="M207.8,17.4c-0.8,0-1.5-0.2-2.2-0.6s-1.2-1-1.5-1.7c-0.4-0.7-0.5-1.5-0.5-2.4v-0.4c0-0.9,0.2-1.8,0.5-2.5
			c0.4-0.7,0.9-1.3,1.5-1.8c0.6-0.4,1.3-0.6,2.1-0.6c1.2,0,2.1,0.4,2.8,1.2c0.7,0.8,1,1.9,1,3.3v0.6h-6.8v0.2c0,1.1,0.3,2,0.9,2.7
			c0.6,0.7,1.4,1.1,2.3,1.1c0.6,0,1.1-0.1,1.5-0.3c0.4-0.2,0.8-0.5,1.2-1l0.7,0.5C210.4,16.8,209.3,17.4,207.8,17.4z M207.6,8.3
			c-0.8,0-1.5,0.3-2,0.9s-0.9,1.4-1,2.4h5.7v-0.1c0-0.9-0.3-1.7-0.8-2.3C209.1,8.6,208.4,8.3,207.6,8.3z"/>
		<path class="st3" d="M217.9,8.5c-0.2,0-0.5-0.1-0.7-0.1c-0.7,0-1.2,0.2-1.7,0.6s-0.8,0.9-1,1.6v6.6h-1.1V7.6h1l0,1.5
			c0.6-1.1,1.5-1.7,2.7-1.7c0.3,0,0.5,0,0.7,0.1L217.9,8.5z"/>
		<path class="st3" d="M233.5,15.7c-0.4,0.5-1,1-1.8,1.3c-0.8,0.3-1.7,0.5-2.7,0.5c-1,0-1.9-0.2-2.7-0.7c-0.8-0.5-1.4-1.2-1.8-2.1
			c-0.4-0.9-0.6-1.9-0.7-3.1V9.9c0-1.8,0.5-3.2,1.4-4.3c0.9-1,2.1-1.6,3.6-1.6c1.3,0,2.4,0.3,3.2,1c0.8,0.7,1.3,1.6,1.4,2.8h-1.1
			c-0.2-1-0.5-1.7-1.2-2.2c-0.6-0.5-1.4-0.7-2.4-0.7c-1.2,0-2.2,0.4-2.9,1.3c-0.7,0.9-1.1,2.1-1.1,3.7v1.5c0,1,0.2,1.9,0.5,2.6
			c0.3,0.8,0.8,1.3,1.4,1.8c0.6,0.4,1.3,0.6,2.1,0.6c0.9,0,1.7-0.1,2.4-0.4c0.4-0.2,0.8-0.4,1-0.7V12h-3.5v-0.9h4.5V15.7z"/>
		<path class="st3" d="M240.7,8.5c-0.2,0-0.5-0.1-0.7-0.1c-0.7,0-1.2,0.2-1.7,0.6c-0.5,0.4-0.8,0.9-1,1.6v6.6h-1.1V7.6h1l0,1.5
			c0.6-1.1,1.5-1.7,2.7-1.7c0.3,0,0.5,0,0.7,0.1L240.7,8.5z"/>
		<path class="st3" d="M241.6,12.3c0-0.9,0.2-1.8,0.5-2.5c0.4-0.7,0.9-1.3,1.5-1.7c0.7-0.4,1.4-0.6,2.2-0.6c1.3,0,2.3,0.5,3.1,1.4
			c0.8,0.9,1.2,2.1,1.2,3.6v0.2c0,0.9-0.2,1.8-0.5,2.5c-0.4,0.7-0.9,1.3-1.5,1.7s-1.4,0.6-2.2,0.6c-1.3,0-2.3-0.5-3.1-1.4
			c-0.8-0.9-1.2-2.1-1.2-3.6V12.3z M242.7,12.6c0,1.2,0.3,2.1,0.9,2.8c0.6,0.7,1.4,1.1,2.3,1.1c1,0,1.7-0.4,2.3-1.1
			c0.6-0.7,0.9-1.7,0.9-2.9v-0.2c0-0.7-0.1-1.4-0.4-2c-0.3-0.6-0.7-1.1-1.1-1.4c-0.5-0.3-1-0.5-1.7-0.5c-0.9,0-1.7,0.4-2.3,1.1
			c-0.6,0.7-0.9,1.7-0.9,2.9V12.6z"/>
		<path class="st3" d="M258.5,16c-0.6,0.9-1.7,1.4-3,1.4c-1,0-1.8-0.3-2.3-0.9c-0.5-0.6-0.8-1.5-0.8-2.7V7.6h1.1v6.2
			c0,1.8,0.7,2.8,2.2,2.8c1.5,0,2.5-0.6,2.9-1.9v-7h1.1v9.7h-1L258.5,16z"/>
		<path class="st3" d="M270,12.5c0,1.5-0.3,2.7-1,3.6c-0.7,0.9-1.5,1.3-2.7,1.3c-1.3,0-2.3-0.5-3-1.4V21h-1.1V7.6h1l0.1,1.4
			c0.7-1,1.7-1.5,3-1.5c1.1,0,2,0.4,2.7,1.3c0.7,0.9,1,2.1,1,3.6V12.5z M268.9,12.3c0-1.2-0.3-2.2-0.8-2.9c-0.5-0.7-1.2-1.1-2.1-1.1
			c-0.6,0-1.2,0.2-1.7,0.5s-0.8,0.8-1.1,1.4v4.6c0.3,0.6,0.6,1,1.1,1.3c0.5,0.3,1,0.4,1.7,0.4c0.9,0,1.6-0.4,2.1-1.1
			C268.7,14.7,268.9,13.7,268.9,12.3z"/>
	</g>
	<g>
		<path class="st2" d="M20.8,12.3l8.4,0.5l4-7.7l-2.8,1.6L26.2,0c0,0-6.3-0.1-10.2,0.1c-1.6,0.1-2.8,0.7-3.4,1.6l-5.5,9.7l7,3.9
			l5.9-10.5l3.6,5.8L20.8,12.3z M20.8,12.3"/>
		<path class="st0" d="M38.9,22.1l-5.3-9.8l-7.1,3.8l5.7,10.6l-6.8-0.1l0.1-3.1l-4.9,6.7l4.3,7.5l0.1-3.2h8c0,0,3.4-5.3,5.3-8.7
			C39.3,24.4,39.4,23.1,38.9,22.1L38.9,22.1z M38.9,22.1"/>
		<path class="st1" d="M10.6,21.4l3,1.8l-3.9-7.7L1,15.7l2.8,1.7l-3.8,7c0,0,3.1,5.5,5.1,8.8c0.9,1.4,2,2.1,3.1,2.1h11.1v-8H7.3
			L10.6,21.4z M10.6,21.4"/>
	</g>
</g>
</svg>
